<?xml version="1.0" encoding="UTF-8" standalone="no"?>
<!-- Created with Inkscape (http://www.inkscape.org/) -->
<svg id="svg3384" xmlns:rdf="http://www.w3.org/1999/02/22-rdf-syntax-ns#" xmlns="http://www.w3.org/2000/svg" height="78.215mm" viewBox="0 0 277.14075 277.13875" width="78.215mm" version="1.1" xmlns:cc="http://creativecommons.org/ns#" xmlns:dc="http://purl.org/dc/elements/1.1/">
 <metadata id="metadata3389">
  <rdf:RDF>
   <cc:Work rdf:about="">
    <dc:format>image/svg+xml</dc:format>
    <dc:type rdf:resource="http://purl.org/dc/dcmitype/StillImage"/>
    <dc:title/>
   </cc:Work>
  </rdf:RDF>
 </metadata>
 <path id="path4159" d="m252.12 139.08c0 62.532-50.645 113.18-113.18 113.18-62.488 0-113.13-50.645-113.13-113.18 0-62.488 50.645-113.13 113.13-113.13 62.532 0 113.18 50.645 113.18 113.13z" stroke="#008000" stroke-width="11.439px" fill="none"/>
 <path id="path4167" fill="#008000" d="m139.49 84.356c-21.313 0.002-42.713 0.10458-44.154 0.3086-5.5244 0.78209-9.9479 4.9249-11.109 10.406-0.66908 3.1574-0.65072 85.851 0.0195 88.424 1.3564 5.2074 5.4329 9.0235 10.639 9.9551l0.002-0.002c2.2316 0.39935 3.4304 0.43733 4.5 0.13867l0.75-0.21094v-19.486-19.486l0.9668-1.9727c1.708-3.4785 4.8036-5.8841 8.4492-6.5703 2.149-0.40425 55.913-0.40992 58.383-0.006 4.0112 0.65606 7.1581 3.0628 8.9512 6.8477l0.94922 2.0039-0.10937 19.404-0.10938 19.406 1.0312 0.19336c1.3306 0.24962 5.1721-0.28677 6.9551-0.97072 4.1309-1.5846 7.4264-5.6404 8.2637-10.17 0.4315-2.3348 0.43894-84.065 0.008-86.813-0.85935-5.4761-5.3264-10.086-10.756-11.1-1.092-0.2036-22.316-0.30268-43.629-0.30079zm9.3282 5.752c9.1823 0.008 13.884 0.0912 14.488 0.25391 1.5179 0.40873 3.2215 1.9039 3.9199 3.4414 0.50401 1.1093 0.54674 2.3259 0.55274 15.688 0.006 12.405-0.0594 14.644-0.45704 15.596-0.59137 1.4154-1.4917 2.3762-2.9024 3.0996-1.0631 0.54519-2.2476 0.5799-24.75 0.72266-26.406 0.16754-25.611 0.22009-27.717-1.8359-2.07-2.0213-2.1021-2.3071-2.0039-18.307l0.0859-14.061 0.75-1.3359c0.4125-0.73517 1.3354-1.7477 2.0508-2.25l1.3008-0.91406 23.992-0.082c4.0706-0.0139 7.6287-0.0183 10.689-0.0156zm-3.2598 6.2481-0.73634 0.73633-0.73633 0.73633v13.342 13.342l0.79102 0.62109c0.75259 0.59197 1.1542 0.62305 8.4121 0.62305h7.6231l0.73633-0.73633 0.73634-0.73633v-13.229-13.227l-0.73634-0.73633-0.73633-0.73633h-7.6758-7.6778zm-36.723 53.25-1.5957 0.88281c-1.9473 1.0787-3.1974 2.4595-4.2168 4.6543l-0.77344 1.6621-0.25781 18.137c-0.24506 17.201-0.23027 18.154 0.27539 18.524 0.43026 0.31464 7.405 0.39062 36.139 0.39062 19.583 0 36.018-0.0826 36.524-0.18359 0.50508-0.10101 0.98832-0.36787 1.0742-0.5918 0.0859-0.22393 0.0366-8.4127-0.10938-18.197-0.25482-17.078-0.29199-17.858-0.90624-19.5-0.7361-1.9674-2.5834-4.0326-4.543-5.0781l-1.3106-0.69922h-30.149-30.15zm0.75001 9.7461 29.324 0.0781 29.326 0.0762 0.0918 1.4668c0.0512 0.80677-0.0147 1.573-0.14844 1.7031-0.35672 0.34697-12.125 0.46278-36.77 0.36328l-21.824-0.0879v-1.7988-1.8008zm29.1 10.32c18.581-0.022 29.084 0.0723 29.324 0.26172 0.47462 0.37355 0.49271 2.5147 0.0234 2.8047-0.62468 0.38605-58.207 0.31281-58.356-0.0742-0.0719-0.18736-0.0869-0.92876-0.0351-1.6484l0.0937-1.3086 28.949-0.0351zm0.30078 10.984c25.716 0 29.139 0.0524 29.293 0.45313 0.0958 0.2496 0.006 0.65501-0.19727 0.9004-0.32305 0.38929-4.06 0.44531-29.293 0.44531-25.432 0-28.944-0.0535-29.096-0.44922-0.095-0.2475-0.095-0.6529 0-0.9004 0.15185-0.3957 3.6863-0.44922 29.293-0.44922z"/>
</svg>
